<?xml version="1.0" encoding="UTF-8"?>
<svg id="Livello_1" data-name="Livello 1" xmlns="http://www.w3.org/2000/svg" viewBox="0 0 419.28 35.14">
  <defs>
    <style>
      .cls-1 {
        fill: #fff;
      }

      .cls-2 {
        fill: #1398d6;
      }
    </style>
  </defs>
  <path class="cls-2" d="m0,34.37V.77h9.31l17.09,20.45h-4.32V.77h11.04v33.6h-9.31L6.72,13.92h4.32v20.45H0Z"/>
  <path class="cls-2" d="m34.94,34.37L49.63.77h11.14l14.69,33.6h-11.71l-10.85-28.22h4.42l-10.85,28.22h-11.52Zm8.74-5.86l2.88-8.16h15.46l2.88,8.16h-21.22Z"/>
  <path class="cls-2" d="m77.28,34.37V.77h16.18c3.14,0,5.85.51,8.14,1.54,2.29,1.02,4.06,2.49,5.3,4.39,1.25,1.9,1.87,4.15,1.87,6.74s-.62,4.83-1.87,6.72c-1.25,1.89-3.02,3.35-5.3,4.39-2.29,1.04-5,1.56-8.14,1.56h-9.89l5.04-4.85v13.1h-11.33Zm11.33-11.86l-5.04-5.14h9.17c1.57,0,2.73-.35,3.48-1.06.75-.7,1.13-1.66,1.13-2.88s-.38-2.18-1.13-2.88c-.75-.7-1.91-1.06-3.48-1.06h-9.17l5.04-5.14v18.14Z"/>
  <path class="cls-2" d="m130.56,35.14c-2.72,0-5.24-.43-7.56-1.3-2.32-.86-4.33-2.09-6.02-3.67-1.7-1.58-3.02-3.45-3.96-5.59-.94-2.14-1.42-4.48-1.42-7.01s.47-4.9,1.42-7.03c.94-2.13,2.26-3.98,3.96-5.57,1.7-1.58,3.7-2.81,6.02-3.67,2.32-.86,4.84-1.3,7.56-1.3s5.28.43,7.58,1.3c2.3.86,4.3,2.09,6,3.67,1.7,1.58,3.02,3.44,3.96,5.57.94,2.13,1.42,4.47,1.42,7.03s-.47,4.86-1.42,7.01c-.94,2.14-2.26,4.01-3.96,5.59-1.7,1.58-3.7,2.81-6,3.67-2.3.86-4.83,1.3-7.58,1.3Zm0-9.17c1.06,0,2.04-.19,2.95-.58.91-.38,1.71-.94,2.4-1.66.69-.72,1.22-1.6,1.61-2.64.38-1.04.58-2.22.58-3.53s-.19-2.49-.58-3.53c-.38-1.04-.92-1.92-1.61-2.64-.69-.72-1.49-1.27-2.4-1.66-.91-.38-1.9-.58-2.95-.58s-2.04.19-2.95.58-1.71.94-2.4,1.66c-.69.72-1.22,1.6-1.61,2.64-.38,1.04-.58,2.22-.58,3.53s.19,2.49.58,3.53c.38,1.04.92,1.92,1.61,2.64.69.72,1.49,1.27,2.4,1.66.91.38,1.9.58,2.95.58Z"/>
  <path class="cls-2" d="m153.65,34.37V.77h11.33v24.82h15.17v8.78h-26.5Z"/>
  <path class="cls-2" d="m183.26,34.37V.77h11.33v33.6h-11.33Z"/>
  <path class="cls-1" d="m214.46,34.37V.77h17.95c4.64,0,8.06.82,10.27,2.47,2.21,1.65,3.31,3.75,3.31,6.31,0,1.7-.47,3.21-1.42,4.54-.94,1.33-2.31,2.38-4.1,3.14-1.79.77-4,1.15-6.62,1.15l.96-2.59c2.62,0,4.89.37,6.79,1.1,1.9.74,3.38,1.8,4.42,3.19,1.04,1.39,1.56,3.06,1.56,5.02,0,2.91-1.21,5.18-3.62,6.82-2.42,1.63-5.94,2.45-10.58,2.45h-18.91Zm11.14-7.92h6.82c1.25,0,2.18-.22,2.81-.67.62-.45.94-1.1.94-1.97s-.31-1.52-.94-1.97c-.62-.45-1.56-.67-2.81-.67h-7.58v-7.49h6.05c1.28,0,2.22-.22,2.81-.65.59-.43.89-1.05.89-1.85s-.3-1.46-.89-1.87c-.59-.42-1.53-.62-2.81-.62h-5.28v17.76Z"/>
  <path class="cls-1" d="m247.92,34.37L262.61.77h11.14l14.69,33.6h-11.71l-10.85-28.22h4.42l-10.85,28.22h-11.52Zm8.74-5.86l2.88-8.16h15.46l2.88,8.16h-21.22Z"/>
  <path class="cls-1" d="m302.78,35.14c-2.82,0-5.54-.32-8.16-.96s-4.78-1.47-6.48-2.5l3.65-8.26c1.6.93,3.38,1.67,5.35,2.23,1.97.56,3.88.84,5.74.84,1.09,0,1.94-.07,2.57-.22s1.08-.35,1.37-.62c.29-.27.43-.6.43-.98,0-.61-.34-1.09-1.01-1.44-.67-.35-1.56-.65-2.66-.89-1.1-.24-2.31-.5-3.62-.77-1.31-.27-2.63-.63-3.96-1.08-1.33-.45-2.54-1.04-3.65-1.78-1.1-.74-1.99-1.7-2.66-2.9-.67-1.2-1.01-2.7-1.01-4.49,0-2.08.58-3.98,1.75-5.69,1.17-1.71,2.91-3.08,5.23-4.1,2.32-1.02,5.21-1.54,8.66-1.54,2.27,0,4.51.24,6.72.72s4.19,1.22,5.95,2.21l-3.41,8.21c-1.67-.83-3.27-1.46-4.82-1.87-1.55-.42-3.06-.62-4.54-.62-1.09,0-1.95.1-2.59.29-.64.19-1.1.45-1.37.77-.27.32-.41.67-.41,1.06,0,.58.34,1.03,1.01,1.37s1.56.62,2.66.84c1.1.22,2.32.46,3.65.72,1.33.26,2.65.61,3.96,1.06,1.31.45,2.52,1.04,3.62,1.78,1.1.74,1.99,1.7,2.66,2.88.67,1.18,1.01,2.66,1.01,4.42,0,2.05-.58,3.93-1.75,5.64-1.17,1.71-2.9,3.09-5.21,4.13s-5.2,1.56-8.69,1.56Z"/>
  <path class="cls-1" d="m321.79,34.37V.77h11.14v33.6h-11.14Zm10.13-7.2l-.62-12.43,12.67-13.97h12.34l-14.21,15.65-6.29,6.43-3.89,4.32Zm11.95,7.2l-9.89-13.06,7.34-7.78,15.65,20.83h-13.1Z"/>
  <path class="cls-1" d="m369.65,25.82h16.8v8.54h-27.94V.77h27.31v8.54h-16.18v16.51Zm-.77-12.58h14.98v8.16h-14.98v-8.16Z"/>
  <path class="cls-1" d="m398.11,34.37V9.55h-9.84V.77h31.01v8.78h-9.84v24.82h-11.33Z"/>
</svg>