<?xml version="1.0" encoding="UTF-8"?>
<svg xmlns="http://www.w3.org/2000/svg" viewBox="0 0 407.29 407.29">
  <defs>
    <style>
      .cls-1 {
        fill: #fff;
      }
    </style>
  </defs>
  <g id="Livello_1" data-name="Livello 1" focusable="false">
    <path class="cls-1" d="m19.09,273.65L0,254.56l19.09,19.09L0,254.56l19.09-19.09L254.56,0l19.09,19.09,19.09,19.09,19.09,19.09-9.55,9.55c-5.04,5.57-7.69,11.93-7.95,19.09.26,7.16,2.92,13.52,7.95,19.09,5.57,5.04,11.93,7.69,19.09,7.95,7.16-.26,13.52-2.92,19.09-7.95l9.55-9.55,19.09,19.09,19.09,19.09,19.09,19.09-19.09,19.09-235.47,235.47-19.09-19.09-114.55-114.55h0Zm133.64,95.46l216.37-216.37-216.37,216.37,216.37-216.37-20.29-20.29c-10.87,6.1-22.27,8.49-34.21,7.16-11.67-1.59-22.14-6.76-31.42-15.51-8.75-9.28-13.92-19.75-15.51-31.42-1.33-11.93,1.06-23.33,7.16-34.21l-20.29-20.29L38.18,254.56l114.55,114.55h0Zm53.03-256.68c5.66-4.95,11.31-4.95,16.97,0,4.95,5.66,4.95,11.31,0,16.97-5.66,4.95-11.31,4.95-16.97,0-4.95-5.66-4.95-11.31,0-16.97h0Zm25.46,25.46c5.66-4.95,11.31-4.95,16.97,0,4.95,5.66,4.95,11.31,0,16.97-5.66,4.95-11.31,4.95-16.97,0-4.95-5.66-4.95-11.31,0-16.97h0Zm25.46,42.43c-4.95-5.66-4.95-11.31,0-16.97,5.66-4.95,11.31-4.95,16.97,0,4.95,5.66,4.95,11.31,0,16.97-5.66,4.95-11.31,4.95-16.97,0h0Zm25.46,8.49c5.66-4.95,11.31-4.95,16.97,0,4.95,5.66,4.95,11.31,0,16.97-5.66,4.95-11.31,4.95-16.97,0-4.95-5.66-4.95-11.31,0-16.97h0Z"/>
  </g>
</svg>